<?xml version="1.0" encoding="UTF-8"?>
<svg xmlns="http://www.w3.org/2000/svg" viewBox="0 0 117.6 102.56">
  <defs>
    <style>.cls-1{fill:#136450;}.cls-2{fill:#252d32;}.cls-3{fill:#f1c34a;}</style>
  </defs>
  <g id="Layer_2" data-name="Layer 2">
    <g id="Icons">
      <path class="cls-1" d="M95,15.22c-5,2.43-8.33,9.43-8.33,9.43s7.75,2,12.71-.43,8.81-9.86,8.81-9.86S100,12.8,95,15.22Z"></path>
      <path class="cls-1" d="M26.13,55.36a53.28,53.28,0,0,0,3.34,5.2h21.6c-1.14-4.43-4.27-10.22-9.88-17.12C29.54,29.1,7.1,25.12,7.1,25.12s9,9.17,12,16C21.05,45.55,23.47,50.62,26.13,55.36Z"></path>
      <path class="cls-2" d="M96.45,61.58a1.51,1.51,0,0,1-1.17-2.45A17.12,17.12,0,0,0,98,54.63a19.61,19.61,0,0,0,.58-13.47,13.75,13.75,0,0,0-7.82-8.66,17.36,17.36,0,0,0-7.68-.82,1.51,1.51,0,0,1-1.38-.55,16.28,16.28,0,0,0-6-4.61c-4.24-1.69-9.11-1-13.35,1.95A1.5,1.5,0,0,1,60.68,26c5.08-3.51,11-4.34,16.16-2.27a19.31,19.31,0,0,1,6.65,4.88,20.15,20.15,0,0,1,8.37,1.11,16.64,16.64,0,0,1,9.55,10.48,22.61,22.61,0,0,1-.63,15.54A20.3,20.3,0,0,1,97.61,61,1.48,1.48,0,0,1,96.45,61.58Z"></path>
      <path class="cls-2" d="M84.48,30.39a1.46,1.46,0,0,1-.82-.25,1.5,1.5,0,0,1-.44-2.07c4.32-6.64,2.9-15.75,2.89-15.84a1.5,1.5,0,0,1,3-.48c.07.42,1.61,10.35-3.33,18A1.49,1.49,0,0,1,84.48,30.39Z"></path>
      <path class="cls-3" d="M24.87,2.53C26,14.16,29.14,24.21,35.47,31.79l6.61,4.87c-1.25-5.49.16-13.13,2.36-20.23C36.77,5.26,29.91-1.31,24.87,2.53Z"></path>
      <path class="cls-1" d="M45.93,40.92C43.09,24.19,49.39,14.51,57,4.62c0,0-4,18.44-2.49,24.31,4.26,16.22,5.77,27.71,1.1,32.63C53.73,53,51.16,46.92,45.93,40.92Z"></path>
      <path class="cls-2" d="M22.1,25.89a1.49,1.49,0,0,1-1.48-1.26c-2-12.15,1.84-23.22,5.29-24.47s13.35,4.69,19.55,15.1a1.5,1.5,0,1,1-2.57,1.54C37,7,28.53,2.58,26.91,3c-1.49.74-5.2,9.73-3.33,21.16a1.5,1.5,0,0,1-1.24,1.72A1,1,0,0,1,22.1,25.89Z"></path>
      <path class="cls-2" d="M54.1,61.56a1.5,1.5,0,0,1-1.5-1.5c0-1.63-.86-7.36-4.8-14.25C40.58,33.17,17.44,23.27,5.38,23.07l1,.75c5.27,3.9,11.25,8.33,16,20.31A77.26,77.26,0,0,0,30.13,59a1.5,1.5,0,1,1-2.47,1.7,80.54,80.54,0,0,1-8-15.48c-4.48-11.19-10.09-15.34-15-19C3.18,25.17,1.82,24.17.52,23a1.49,1.49,0,0,1-.47-1.5,1.52,1.52,0,0,1,1.13-1.1C12.53,18,41.67,29.05,50.4,44.32c4.11,7.19,5.2,13.44,5.2,15.74A1.5,1.5,0,0,1,54.1,61.56Z"></path>
      <path class="cls-2" d="M58.31,53.25h-.06a1.5,1.5,0,0,1-1.44-1.56C57,45.3,55.49,38.78,54.36,34c-.51-2.15-1-4-1.12-5.39-.88-7.24,1.23-17,2.62-22.3A31.23,31.23,0,0,0,49,12.47c-7.21,9.77-6,17.18-6,17.25a1.5,1.5,0,0,1-2.95.53c-.07-.35-1.45-8.76,6.51-19.56,3.39-4.6,10.72-8.9,11-9.08a1.5,1.5,0,0,1,2.19,1.74c0,.15-4.77,15.31-3.6,24.92.15,1.22.57,3,1.06,5.06C58.45,38.26,60.05,45,59.81,51.8A1.51,1.51,0,0,1,58.31,53.25Z"></path>
      <path class="cls-2" d="M14.34,18.75A1.5,1.5,0,0,1,13,17.93L6,4.21A1.51,1.51,0,0,1,7.52,2c.36.06,9.09,1.49,15,7.3a1.5,1.5,0,1,1-2.09,2.15A25.67,25.67,0,0,0,10.12,5.77l5.56,10.79a1.5,1.5,0,0,1-.65,2A1.53,1.53,0,0,1,14.34,18.75Z"></path>
      <path class="cls-2" d="M27.07,13.2a1.5,1.5,0,0,1-.51-2.91l2.65-1a1.5,1.5,0,1,1,1,2.82l-2.65,1A1.52,1.52,0,0,1,27.07,13.2Z"></path>
      <path class="cls-2" d="M34.76,17.9A1.5,1.5,0,0,1,34.25,15l2.64-1a1.5,1.5,0,1,1,1,2.82l-2.65,1A1.52,1.52,0,0,1,34.76,17.9Z"></path>
      <path class="cls-2" d="M28,24.08a1.5,1.5,0,0,1-.51-2.91l2.64-1a1.5,1.5,0,1,1,1,2.82l-2.65,1A1.52,1.52,0,0,1,28,24.08Z"></path>
      <path class="cls-3" d="M19.45,68.56H110.6a0,0,0,0,1,0,0v32a0,0,0,0,1,0,0h-95a0,0,0,0,1,0,0V72.41A3.85,3.85,0,0,1,19.45,68.56Z"></path>
      <path class="cls-2" d="M116.1,102.56H2.1a1.5,1.5,0,1,1,0-3h114a1.5,1.5,0,0,1,0,3Z"></path>
      <path class="cls-2" d="M86.1,82.56H9.1a1.5,1.5,0,1,1,0-3h77a1.5,1.5,0,0,1,0,3Z"></path>
      <path class="cls-2" d="M110.1,82.56h-12a1.5,1.5,0,0,1,0-3h12a1.5,1.5,0,0,1,0,3Z"></path>
      <path class="cls-2" d="M111.1,101.56a1.5,1.5,0,0,1-1.5-1.5V62.56H9.6v37.5a1.5,1.5,0,0,1-3,0v-39a1.5,1.5,0,0,1,1.5-1.5h103a1.5,1.5,0,0,1,1.5,1.5v39A1.5,1.5,0,0,1,111.1,101.56Z"></path>
      <circle class="cls-2" cx="101.1" cy="71.06" r="2.5"></circle>
      <circle class="cls-2" cx="101.1" cy="91.06" r="2.5"></circle>
      <circle class="cls-2" cx="18.1" cy="71.06" r="2.5"></circle>
      <circle class="cls-2" cx="18.1" cy="91.06" r="2.5"></circle>
    </g>
  </g>
</svg>
