<?xml version="1.0" encoding="UTF-8"?>
<svg xmlns="http://www.w3.org/2000/svg" viewBox="0 0 119.91 102.41">
  <defs>
    <style>.cls-1{fill:#ffc960;}.cls-2{fill:#136450;}.cls-3{fill:#252d32;}</style>
  </defs>
  <g id="Layer_2" data-name="Layer 2">
    <g id="Icons">
      <rect class="cls-1" x="25" y="57.41" width="17" height="19"></rect>
      <path class="cls-1" d="M109.92,11.74l-6.36,6.36,4.24,4.25,10.61-10.61A6,6,0,0,0,109.92,11.74Z"></path>
      <path class="cls-1" d="M91.57,16.26,98,22.57l4.21-4.27L91.51,7.77A6,6,0,0,0,91.57,16.26Z"></path>
      <path class="cls-1" d="M113.37,30l-6.57-6.15-4.1,4.38,11,10.25A6,6,0,0,0,113.37,30Z"></path>
      <path class="cls-1" d="M96.05,34.59l6.36-6.37L98.16,24,87.56,34.59A6,6,0,0,0,96.05,34.59Z"></path>
      <rect class="cls-2" x="56" y="53.41" width="22" height="47"></rect>
      <path class="cls-2" d="M54.45,5.39l-40.54,35H95ZM49,31.41a6,6,0,1,1,6-6A6,6,0,0,1,49,31.41Z"></path>
      <path class="cls-3" d="M110.5,102.41H1.5a1.5,1.5,0,0,1,0-3h109a1.5,1.5,0,0,1,0,3Z"></path>
      <path class="cls-3" d="M90.5,88.41a1.5,1.5,0,0,1-1.5-1.5v-45a1.5,1.5,0,0,1,3,0v45A1.5,1.5,0,0,1,90.5,88.41Z"></path>
      <path class="cls-3" d="M7.5,79.41A1.5,1.5,0,0,1,6,77.91v-36a1.5,1.5,0,0,1,3,0v36A1.5,1.5,0,0,1,7.5,79.41Z"></path>
      <path class="cls-3" d="M95,42.41H3.75a1.5,1.5,0,0,1-1-2.64L48.39.36a1.51,1.51,0,0,1,2,0L96,39.77a1.5,1.5,0,0,1-1,2.64Zm-87.22-3H91L49.37,3.48Z"></path>
      <path class="cls-3" d="M42.5,78.41h-23a1.5,1.5,0,0,1-1.5-1.5v-24a1.5,1.5,0,0,1,1.5-1.5h23a1.5,1.5,0,0,1,1.5,1.5v24A1.5,1.5,0,0,1,42.5,78.41Zm-21.5-3H41v-21H21Z"></path>
      <path class="cls-3" d="M78.5,100.41a1.5,1.5,0,0,1-1.5-1.5V54.41H57v44.5a1.5,1.5,0,0,1-3,0v-46a1.5,1.5,0,0,1,1.5-1.5h23a1.5,1.5,0,0,1,1.5,1.5v46A1.5,1.5,0,0,1,78.5,100.41Z"></path>
      <path class="cls-3" d="M29.5,78.41a1.5,1.5,0,0,1-1.5-1.5v-23a1.5,1.5,0,0,1,3,0v23A1.5,1.5,0,0,1,29.5,78.41Z"></path>
      <path class="cls-3" d="M40.5,65.41h-9a1.5,1.5,0,0,1,0-3h9a1.5,1.5,0,0,1,0,3Z"></path>
      <path class="cls-3" d="M16.5,30.41a1.5,1.5,0,0,1-1.5-1.5v-19a1.5,1.5,0,0,1,1.5-1.5h9A1.5,1.5,0,0,1,27,9.91v4a1.5,1.5,0,0,1-3,0v-2.5H18v17.5A1.5,1.5,0,0,1,16.5,30.41Z"></path>
      <path class="cls-3" d="M62.5,78.41a1.5,1.5,0,0,1-1.5-1.5v-4a1.5,1.5,0,0,1,3,0v4A1.5,1.5,0,0,1,62.5,78.41Z"></path>
      <path class="cls-3" d="M44.5,90.41H3.5a1.5,1.5,0,0,1,0-3h41a1.5,1.5,0,0,1,0,3Z"></path>
      <path class="cls-3" d="M7.5,101.41A1.5,1.5,0,0,1,6,99.91v-15a1.5,1.5,0,0,1,3,0v15A1.5,1.5,0,0,1,7.5,101.41Z"></path>
      <path class="cls-3" d="M18.5,101.41a1.5,1.5,0,0,1-1.5-1.5v-15a1.5,1.5,0,0,1,3,0v15A1.5,1.5,0,0,1,18.5,101.41Z"></path>
      <path class="cls-3" d="M29.5,101.41a1.5,1.5,0,0,1-1.5-1.5v-15a1.5,1.5,0,0,1,3,0v15A1.5,1.5,0,0,1,29.5,101.41Z"></path>
      <path class="cls-3" d="M40.5,101.41a1.5,1.5,0,0,1-1.5-1.5v-15a1.5,1.5,0,0,1,3,0v15A1.5,1.5,0,0,1,40.5,101.41Z"></path>
      <path class="cls-3" d="M49,33.41a8,8,0,1,1,8-8A8,8,0,0,1,49,33.41Zm0-13a5,5,0,1,0,5,5A5,5,0,0,0,49,20.41Z"></path>
      <path class="cls-3" d="M102.5,100.41a1.5,1.5,0,0,1-1.5-1.5v-71a1.5,1.5,0,1,1,3,0v71A1.5,1.5,0,0,1,102.5,100.41Z"></path>
      <path class="cls-3" d="M102.5,28.41a5.5,5.5,0,1,1,5.5-5.5A5.51,5.51,0,0,1,102.5,28.41Zm0-8a2.5,2.5,0,1,0,2.5,2.5A2.5,2.5,0,0,0,102.5,20.41Z"></path>
      <path class="cls-3" d="M97.2,23.85a1.49,1.49,0,0,1-1.06-.44L89.77,17a7.51,7.51,0,0,1,0-10.6,1.49,1.49,0,0,1,2.12,0L102.5,17a1.5,1.5,0,1,1-2.12,2.12L91,9.8a4.58,4.58,0,0,0-.43,1.94,4.46,4.46,0,0,0,1.31,3.18l6.37,6.36a1.51,1.51,0,0,1-1.06,2.57Z"></path>
      <path class="cls-3" d="M114.17,40.82a1.49,1.49,0,0,1-1.06-.44L102.5,29.77a1.5,1.5,0,0,1,2.12-2.12L114,37a4.52,4.52,0,0,0,.43-1.94,4.46,4.46,0,0,0-1.31-3.18l-6.37-6.36a1.51,1.51,0,0,1,0-2.12,1.49,1.49,0,0,1,2.12,0l6.37,6.36a7.52,7.52,0,0,1,0,10.61A1.53,1.53,0,0,1,114.17,40.82Z"></path>
      <path class="cls-3" d="M91.09,32.07A1.5,1.5,0,0,1,90,29.51l6.11-6.1a1.49,1.49,0,0,1,2.12,0,1.51,1.51,0,0,1,0,2.12l-6.11,6.1A1.49,1.49,0,0,1,91.09,32.07Z"></path>
      <path class="cls-3" d="M96.6,35.05a1.5,1.5,0,0,1-1.06-2.56l4.84-4.84a1.5,1.5,0,0,1,2.12,2.12l-4.84,4.84A1.51,1.51,0,0,1,96.6,35.05Z"></path>
      <path class="cls-3" d="M107.8,23.85a1.51,1.51,0,0,1-1.06-2.57l9.37-9.36a4.49,4.49,0,0,0-5.12.88l-6.37,6.36A1.5,1.5,0,1,1,102.5,17l6.36-6.36a7.5,7.5,0,0,1,10.61,0,1.49,1.49,0,0,1,0,2.12L108.86,23.41A1.49,1.49,0,0,1,107.8,23.85Z"></path>
      <path class="cls-3" d="M90.5,101.41a1.5,1.5,0,0,1-1.5-1.5v-6a1.5,1.5,0,0,1,3,0v6A1.5,1.5,0,0,1,90.5,101.41Z"></path>
    </g>
  </g>
</svg>
