<?xml version="1.0" encoding="UTF-8"?>
<svg xmlns="http://www.w3.org/2000/svg" viewBox="0 0 117 102">
  <defs>
    <style>.cls-1{fill:#136450;}.cls-2{fill:#ffc960;}.cls-3{fill:#f1c34a;}.cls-4{fill:#252d32;}</style>
  </defs>
  <g id="Layer_2" data-name="Layer 2">
    <g id="Icons">
      <path class="cls-1" d="M58,22c-1,12-18,10-18,0L44,2H58Z"></path>
      <path class="cls-1" d="M20,21C19,33,2,33,2,21L13,2H27Z"></path>
      <path class="cls-1" d="M78,22c1,12,19,11,18-1L89,2H74Z"></path>
      <path class="cls-2" d="M20.29,55A6.91,6.91,0,0,0,20,57v7.12A3.88,3.88,0,0,0,23.88,68h6.24A3.88,3.88,0,0,0,34,64.12V57a6.91,6.91,0,0,0-.29-2Z"></path>
      <path class="cls-1" d="M99.55,60.18A3.43,3.43,0,0,0,100,58.5,3.5,3.5,0,0,0,96.64,55,3.36,3.36,0,0,0,97,53.5,3.5,3.5,0,1,0,90.36,55,3.5,3.5,0,0,0,87,58.5a3.43,3.43,0,0,0,.45,1.68A3.49,3.49,0,1,0,91,65.94a3.48,3.48,0,0,0,5,0,3.49,3.49,0,1,0,3.55-5.76Z"></path>
      <path class="cls-3" d="M69,56H86a0,0,0,0,1,0,0v4.94A6.06,6.06,0,0,1,79.94,67H75.06A6.06,6.06,0,0,1,69,60.94V56A0,0,0,0,1,69,56Z"></path>
      <path class="cls-4" d="M9.5,102A1.5,1.5,0,0,1,8,100.5v-69a1.5,1.5,0,0,1,3,0v69A1.5,1.5,0,0,1,9.5,102Z"></path>
      <path class="cls-4" d="M108.5,102a1.5,1.5,0,0,1-1.5-1.5v-69a1.5,1.5,0,0,1,3,0v69A1.5,1.5,0,0,1,108.5,102Z"></path>
      <path class="cls-4" d="M107.5,69h-97a1.5,1.5,0,0,1,0-3h97a1.5,1.5,0,0,1,0,3Z"></path>
      <path class="cls-4" d="M15.5,96h-5a1.5,1.5,0,0,1,0-3h5a1.5,1.5,0,0,1,0,3Z"></path>
      <path class="cls-4" d="M107.5,96h-85a1.5,1.5,0,0,1,0-3h85a1.5,1.5,0,0,1,0,3Z"></path>
      <path class="cls-4" d="M115.5,22a1.5,1.5,0,0,1-1.3-.75L103.64,3H14.33L2.77,21.3A1.5,1.5,0,0,1,.23,19.7l12-19A1.51,1.51,0,0,1,13.5,0h91a1.51,1.51,0,0,1,1.3.75l11,19a1.5,1.5,0,0,1-.55,2.05A1.46,1.46,0,0,1,115.5,22Z"></path>
      <path class="cls-4" d="M93.43,14.1a1.51,1.51,0,0,1-1.4-1L88.1,3A1.5,1.5,0,1,1,90.9,2l3.92,10.09a1.52,1.52,0,0,1-1.39,2Z"></path>
      <path class="cls-4" d="M96.5,22a1.5,1.5,0,0,1-1.4-1l-.94-2.42A1.5,1.5,0,1,1,97,17.53l1,2.43A1.5,1.5,0,0,1,97,21.9,1.44,1.44,0,0,1,96.5,22Z"></path>
      <path class="cls-4" d="M77.5,22A1.5,1.5,0,0,1,76,20.83l-4-18A1.5,1.5,0,0,1,73.18,1,1.48,1.48,0,0,1,75,2.17l4,18A1.5,1.5,0,0,1,77.83,22,1.24,1.24,0,0,1,77.5,22Z"></path>
      <path class="cls-4" d="M39.5,22a1.12,1.12,0,0,1-.32,0A1.5,1.5,0,0,1,38,20.17l4-18A1.5,1.5,0,0,1,45,2.83l-4,18A1.5,1.5,0,0,1,39.5,22Z"></path>
      <path class="cls-4" d="M58.5,22A1.5,1.5,0,0,1,57,20.5V7.5a1.5,1.5,0,0,1,3,0v13A1.5,1.5,0,0,1,58.5,22Z"></path>
      <path class="cls-4" d="M49,32A11,11,0,0,1,38,21a1.5,1.5,0,0,1,3,0,8,8,0,0,0,16,0,1.5,1.5,0,0,1,3,0A11,11,0,0,1,49,32Z"></path>
      <path class="cls-4" d="M68,32A11,11,0,0,1,57,21a1.5,1.5,0,0,1,3,0,8,8,0,0,0,16,0,1.5,1.5,0,0,1,3,0A11,11,0,0,1,68,32Z"></path>
      <path class="cls-4" d="M87,32A11,11,0,0,1,76,21a1.5,1.5,0,0,1,3,0,8,8,0,0,0,16,0,1.5,1.5,0,0,1,3,0A11,11,0,0,1,87,32Z"></path>
      <path class="cls-4" d="M106,32A11,11,0,0,1,95,21a1.5,1.5,0,0,1,3,0,8,8,0,0,0,16,0,1.5,1.5,0,0,1,3,0A11,11,0,0,1,106,32Z"></path>
      <path class="cls-4" d="M20.5,22a1.47,1.47,0,0,1-.54-.1A1.5,1.5,0,0,1,19.1,20l7-18A1.5,1.5,0,1,1,28.9,3l-7,18A1.5,1.5,0,0,1,20.5,22Z"></path>
      <path class="cls-4" d="M30,32A11,11,0,0,1,19,21a1.5,1.5,0,0,1,3,0,8,8,0,0,0,16,0,1.5,1.5,0,0,1,3,0A11,11,0,0,1,30,32Z"></path>
      <path class="cls-4" d="M11,32A11,11,0,0,1,0,21a1.5,1.5,0,0,1,3,0,8,8,0,0,0,16,0,1.5,1.5,0,0,1,3,0A11,11,0,0,1,11,32Z"></path>
      <path class="cls-4" d="M80.44,69H74.56A7.57,7.57,0,0,1,67,61.44V55.5A1.5,1.5,0,0,1,68.5,54h18A1.5,1.5,0,0,1,88,55.5v5.94A7.57,7.57,0,0,1,80.44,69ZM70,57v4.44A4.57,4.57,0,0,0,74.56,66h5.88A4.57,4.57,0,0,0,85,61.44V57Z"></path>
      <path class="cls-4" d="M86.5,57A1.5,1.5,0,0,1,85,55.5v-1a7.5,7.5,0,0,0-15,0v1a1.5,1.5,0,0,1-3,0v-1a10.5,10.5,0,0,1,21,0v1A1.5,1.5,0,0,1,86.5,57Z"></path>
      <path class="cls-4" d="M23.5,88A1.5,1.5,0,0,1,22,86.5v-11a1.5,1.5,0,0,1,3,0v11A1.5,1.5,0,0,1,23.5,88Z"></path>
      <path class="cls-4" d="M94.5,88A1.5,1.5,0,0,1,93,86.5v-11a1.5,1.5,0,0,1,3,0v11A1.5,1.5,0,0,1,94.5,88Z"></path>
      <path class="cls-4" d="M37.5,88A1.5,1.5,0,0,1,36,86.5v-11a1.5,1.5,0,0,1,3,0v11A1.5,1.5,0,0,1,37.5,88Z"></path>
      <path class="cls-4" d="M80.5,88A1.5,1.5,0,0,1,79,86.5v-11a1.5,1.5,0,0,1,3,0v11A1.5,1.5,0,0,1,80.5,88Z"></path>
      <path class="cls-4" d="M51.5,88A1.5,1.5,0,0,1,50,86.5v-11a1.5,1.5,0,0,1,3,0v11A1.5,1.5,0,0,1,51.5,88Z"></path>
      <path class="cls-4" d="M66.5,88A1.5,1.5,0,0,1,65,86.5v-11a1.5,1.5,0,0,1,3,0v11A1.5,1.5,0,0,1,66.5,88Z"></path>
      <path class="cls-4" d="M49.5,68A1.5,1.5,0,0,1,48,66.5V56H38.5a1.5,1.5,0,0,1,0-3h11A1.5,1.5,0,0,1,51,54.5v12A1.5,1.5,0,0,1,49.5,68Z"></path>
      <path class="cls-4" d="M29.62,69H23.38A5.38,5.38,0,0,1,18,63.62V56.5a8.53,8.53,0,0,1,4-7.2V45.5A1.5,1.5,0,0,1,23.5,44h6A1.5,1.5,0,0,1,31,45.5v3.8a8.53,8.53,0,0,1,4,7.2v7.12A5.38,5.38,0,0,1,29.62,69ZM25,47v3.18a1.5,1.5,0,0,1-.86,1.36,5.52,5.52,0,0,0-3.14,5v7.12A2.39,2.39,0,0,0,23.38,66h6.24A2.39,2.39,0,0,0,32,63.62V56.5a5.52,5.52,0,0,0-3.14-5A1.5,1.5,0,0,1,28,50.18V47Z"></path>
      <path class="cls-4" d="M59.5,68A1.5,1.5,0,0,1,58,66.5V47H46v5.5a1.5,1.5,0,0,1-3,0v-7A1.5,1.5,0,0,1,44.5,44h15A1.5,1.5,0,0,1,61,45.5v21A1.5,1.5,0,0,1,59.5,68Z"></path>
    </g>
  </g>
</svg>
